<?xml version="1.0" encoding="UTF-8" standalone="no"?>
<!-- Created with Inkscape (http://www.inkscape.org/) -->

<svg
   version="1.1"
   id="svg1"
   width="200"
   height="200"
   viewBox="0 0 200.00001 200"
   sodipodi:docname="logo_stand_digital_vertical_novo.ai"
   inkscape:version="1.4.2 (ebf0e940d0, 2025-05-08)"
   xmlns:inkscape="http://www.inkscape.org/namespaces/inkscape"
   xmlns:sodipodi="http://sodipodi.sourceforge.net/DTD/sodipodi-0.dtd"
   xmlns="http://www.w3.org/2000/svg"
   xmlns:svg="http://www.w3.org/2000/svg">
  <defs
     id="defs1">
    <clipPath
       clipPathUnits="userSpaceOnUse"
       id="clipPath3">
      <path
         d="M 0,792 H 612 V 0 H 0 Z"
         id="path3" />
    </clipPath>
    <clipPath
       clipPathUnits="userSpaceOnUse"
       id="clipPath5">
      <path
         d="M 0,792 H 612 V 0 H 0 Z"
         transform="translate(-266.623,-332.75201)"
         id="path5" />
    </clipPath>
    <clipPath
       clipPathUnits="userSpaceOnUse"
       id="clipPath7">
      <path
         d="M 0,792 H 612 V 0 H 0 Z"
         transform="translate(-480.73631,-321.19921)"
         id="path7" />
    </clipPath>
    <clipPath
       clipPathUnits="userSpaceOnUse"
       id="clipPath9">
      <path
         d="M 0,792 H 612 V 0 H 0 Z"
         transform="translate(-354.59961,-400.06011)"
         id="path9" />
    </clipPath>
  </defs>
  <sodipodi:namedview
     id="namedview1"
     pagecolor="#ffffff"
     bordercolor="#000000"
     borderopacity="0.25"
     inkscape:showpageshadow="2"
     inkscape:pageopacity="0.0"
     inkscape:pagecheckerboard="0"
     inkscape:deskcolor="#d1d1d1"
     inkscape:zoom="0.75473485"
     inkscape:cx="96.72271"
     inkscape:cy="253.73149"
     inkscape:window-width="1920"
     inkscape:window-height="1006"
     inkscape:window-x="0"
     inkscape:window-y="46"
     inkscape:window-maximized="1"
     inkscape:current-layer="layer-MC0">
    <inkscape:page
       x="0"
       y="0"
       inkscape:label="1"
       id="page1"
       width="200.00002"
       height="200"
       margin="161.536 42.869335 162.66667 41.333332"
       bleed="0" />
  </sodipodi:namedview>
  <g
     id="layer-MC0"
     inkscape:groupmode="layer"
     inkscape:label="Layer 1"
     transform="translate(-311.09414,-267.02387)">
    <path
       id="path8"
       d="M 0,0 C -0.094,0.481 -0.369,0.928 -0.809,1.224 -1.246,1.521 -1.764,1.613 -2.244,1.521 -2.725,1.428 -3.172,1.15 -3.469,0.711 -3.766,0.273 -3.855,-0.245 -3.764,-0.725 c 0.092,-0.481 0.369,-0.928 0.809,-1.225 0.437,-0.297 0.955,-0.387 1.435,-0.295 0.481,0.091 0.928,0.369 1.225,0.808 C 0.002,-0.999 0.092,-0.481 0,0 m -19.096,-3.06 c -0.091,0.48 -0.369,0.927 -0.808,1.224 -0.438,0.296 -0.955,0.387 -1.436,0.294 -0.48,-0.092 -0.928,-0.369 -1.224,-0.807 -0.297,-0.439 -0.389,-0.956 -0.297,-1.437 0.095,-0.481 0.373,-0.928 0.81,-1.223 0.44,-0.297 0.957,-0.389 1.438,-0.297 0.478,0.092 0.926,0.371 1.222,0.808 0.297,0.439 0.389,0.956 0.295,1.438 m 4.518,30.38 c -0.092,0.482 -0.369,0.929 -0.809,1.225 -0.437,0.297 -0.955,0.387 -1.435,0.294 -0.481,-0.092 -0.928,-0.369 -1.225,-0.807 -0.297,-0.441 -0.39,-0.958 -0.297,-1.434 0.096,-0.484 0.373,-0.931 0.811,-1.227 0.439,-0.298 0.957,-0.39 1.437,-0.298 0.481,0.096 0.928,0.372 1.223,0.811 0.297,0.438 0.389,0.955 0.295,1.436 m -12.951,-60.724 1.644,0.826 19.487,28.804 c -0.627,0.831 -1.004,1.815 -1.11,2.829 -0.137,1.279 0.162,2.61 0.938,3.756 0.873,1.291 2.191,2.106 3.615,2.382 l 0.006,0.001 C -1.525,5.468 0.002,5.199 1.293,4.326 2.586,3.45 3.404,2.132 3.678,0.709 3.951,-0.713 3.684,-2.241 2.807,-3.536 2.068,-4.626 1.016,-5.378 -0.15,-5.751 -1.08,-6.05 -2.084,-6.105 -3.059,-5.898 l -15.414,-22.951 0.405,0.203 2.15,1.082 7.779,3.912 6.717,3.377 1.692,0.852 v -0.002 l 6.537,3.289 0.357,0.179 3.516,1.77 c -0.002,5.631 -0.002,11.284 -0.004,16.937 0,5.652 -0.002,11.305 -0.002,16.971 0,5.652 -0.002,11.305 -0.004,16.957 L 10.668,50.903 -36.934,29.947 -36.877,0.494 -21.131,23.76 c -0.566,0.828 -0.898,1.787 -0.973,2.77 -0.093,1.232 0.211,2.502 0.956,3.601 0.873,1.291 2.191,2.107 3.615,2.383 l 0.006,10e-4 c 1.423,0.273 2.951,0.005 4.24,-0.869 1.295,-0.875 2.113,-2.194 2.387,-3.617 0.273,-1.422 0.005,-2.95 -0.871,-4.244 -0.77,-1.136 -1.881,-1.905 -3.104,-2.262 -0.971,-0.282 -2.016,-0.304 -3.02,-0.04 l -18.97,-28.029 0.029,-15.188 1.793,1.067 9.467,13.947 c -0.596,0.83 -0.949,1.801 -1.037,2.799 -0.114,1.254 0.189,2.551 0.947,3.672 0.873,1.29 2.191,2.106 3.615,2.381 l 0.006,0.002 c 1.424,0.273 2.951,0.005 4.24,-0.868 1.295,-0.876 2.114,-2.196 2.387,-3.618 0.273,-1.422 0.004,-2.95 -0.871,-4.245 -0.754,-1.113 -1.838,-1.873 -3.033,-2.236 -0.955,-0.293 -1.983,-0.331 -2.971,-0.096 l -9.732,-14.381 -4.801,-2.945 0.021,-11.811 4.951,2.488 0.678,0.34 0.244,0.123 0.243,0.123 z m -43.485,87.503 c 1.605,0.497 3.166,0.979 4.681,1.448 1.471,0.455 2.902,0.898 4.293,1.328 1.019,0.315 2.554,0.299 3.426,-0.031 1.164,-0.441 2.329,-0.882 3.494,-1.323 1.165,-0.441 2.335,-0.884 3.503,-1.326 0.879,-0.333 0.858,-0.892 -0.057,-1.249 -1.252,-0.488 -2.54,-0.99 -3.863,-1.506 -1.363,-0.531 -2.768,-1.079 -4.214,-1.642 -1.115,-0.434 -2.855,-0.487 -3.848,-0.108 -1.319,0.505 -2.638,1.009 -3.954,1.513 -1.315,0.503 -2.63,1.005 -3.943,1.508 -0.984,0.376 -0.756,1.005 0.482,1.388 m 19.915,3.251 c 0.858,0.266 1.692,0.525 2.499,0.775 0.784,0.243 1.547,0.48 2.287,0.709 0.543,0.169 1.391,0.143 1.901,-0.057 0.687,-0.269 1.385,-0.542 2.094,-0.819 0.716,-0.281 1.447,-0.566 2.187,-0.856 0.565,-0.221 0.621,-0.57 0.113,-0.777 -0.695,-0.284 -1.414,-0.579 -2.152,-0.881 -0.764,-0.313 -1.555,-0.636 -2.369,-0.969 -0.631,-0.258 -1.654,-0.25 -2.258,0.021 -0.791,0.354 -1.568,0.704 -2.331,1.046 -0.75,0.337 -1.489,0.668 -2.214,0.994 -0.537,0.241 -0.419,0.608 0.243,0.814 m 14.757,3.01 c 0.572,0.205 1.139,0.409 1.697,0.61 0.553,0.198 1.1,0.394 1.639,0.588 0.401,0.144 1.022,0.151 1.383,0.016 0.488,-0.182 0.984,-0.367 1.486,-0.554 0.508,-0.19 1.026,-0.384 1.551,-0.58 0.399,-0.148 0.397,-0.402 -0.01,-0.563 -0.549,-0.217 -1.103,-0.437 -1.664,-0.659 -0.568,-0.225 -1.144,-0.454 -1.726,-0.685 -0.444,-0.175 -1.133,-0.181 -1.526,-0.012 -0.515,0.221 -1.023,0.439 -1.523,0.654 -0.492,0.211 -0.979,0.419 -1.457,0.625 -0.354,0.152 -0.283,0.404 0.15,0.56 m -9.078,2.923 c 0.572,0.179 1.135,0.356 1.686,0.529 0.543,0.17 1.078,0.338 1.603,0.502 0.389,0.123 0.983,0.114 1.324,-0.019 0.463,-0.178 0.934,-0.36 1.411,-0.544 0.482,-0.187 0.974,-0.376 1.472,-0.569 0.379,-0.146 0.379,-0.381 -0.008,-0.522 -0.523,-0.191 -1.056,-0.386 -1.599,-0.583 -0.553,-0.202 -1.115,-0.407 -1.69,-0.616 -0.437,-0.159 -1.113,-0.151 -1.494,0.018 -0.5,0.222 -0.992,0.44 -1.476,0.655 -0.475,0.211 -0.946,0.42 -1.407,0.625 -0.341,0.151 -0.257,0.387 0.178,0.524 m 18.877,-9.419 3.082,1.122 c 1.404,0.511 2.791,1.017 4.164,1.516 1.02,0.372 2.592,0.439 3.522,0.145 1.283,-0.405 2.619,-0.827 4.007,-1.266 1.452,-0.458 2.965,-0.938 4.545,-1.438 1.237,-0.39 1.328,-1.098 0.162,-1.565 -1.574,-0.629 -3.168,-1.268 -4.781,-1.914 -1.637,-0.655 -3.297,-1.32 -4.976,-1.992 -1.28,-0.512 -3.223,-0.502 -4.282,0.011 -1.349,0.654 -2.638,1.281 -3.871,1.879 l -2.41,1.169 -1.209,-0.441 c -1.096,-0.4 -2.199,-0.802 -3.306,-1.205 -0.834,-0.304 -2.151,-0.258 -2.915,0.1 -0.996,0.467 -1.97,0.924 -2.923,1.37 -0.932,0.437 -1.846,0.864 -2.739,1.283 -0.658,0.308 -0.558,0.779 0.211,1.05 1.02,0.359 2.039,0.718 3.051,1.075 1.01,0.355 2.018,0.709 3.02,1.062 0.752,0.264 1.943,0.255 2.66,-0.023 0.972,-0.379 1.967,-0.764 2.982,-1.158 z M -88.094,55.77 -39.828,35.251 8.74,55.543 -39.809,70.52 Z m 45.502,-93.934 -3.814,1.823 -0.033,31.213 -17.038,13.698 v -36.196 l -3.069,1.544 0.041,55.355 -17.244,-10.2 0.027,-36.52 -6.557,3.301 c 0.006,21.798 0.007,43.597 0.011,65.395 l 47.547,-21.286 z"
       style="fill:#ed8536;fill-opacity:1;fill-rule:nonzero;stroke:none"
       transform="matrix(1.6502998,0,0,-1.6502998,476.32815,393.89259)"
       clip-path="url(#clipPath9)" />
  </g>
</svg>
